<?xml version="1.0" encoding="UTF-8"?>
<svg id="Logo_Ak" xmlns="http://www.w3.org/2000/svg" version="1.1" viewBox="0 0 240 194.1">
  <!-- Generator: Adobe Illustrator 29.0.1, SVG Export Plug-In . SVG Version: 2.1.0 Build 192)  -->
  <defs>
    <style>
      .st0 {
        fill: #767676;
      }

      .st1 {
        fill: #1e96c7;
      }

      .st2 {
        fill: #9ba1a3;
      }

      .st3 {
        fill: #bacbd1;
      }

      .st4 {
        fill: #2097c8;
      }

      .st5 {
        fill: #efe1cf;
      }

      .st6 {
        fill: #091f35;
      }
    </style>
  </defs>
  <path class="st5" d="M210.2,48.3v-5.8s-10.2-2.6-4.8-14.7c2.9-6.4,6.8-6.6,9.8-5.4s5.5,4.2,6.1,7.5c.7,3.9.7,9.8-4.7,13.4v6.6s-2.7,2.4-6.8-.8,0,0,0,0l.3-.8h0Z"/>
  <path class="st5" d="M231.9,70.1s3.6,39.4,2.9,45.2c-.4,3.4-2.5,1.9-3.5.3s-1.5-3.4-1.7-5.2l-2.6-38.4,4.9-1.9"/>
  <path class="st0" d="M192.5,181.3s-.8,3.1-5.4,3.5-7.1-1.3-7.1,4.2h20.8l-.3-7.7h-8"/>
  <path class="st0" d="M219.3,181.2s-.6,2.3-4,2.6-5.2-.9-5.2,3.1h15.3l-.2-5.7h-5.9"/>
  <rect class="st2" x="8.3" y="7.5" width="170.4" height="103.7" rx="12" ry="12"/>
  <rect class="st3" x="6.1" y="3.9" width="170.4" height="103.7" rx="12" ry="12"/>
  <path class="st4" d="M200.4,94.4s-8,31.8-8,47.7v39.2h8s4.2-24.1,4.6-40c.4-15.9,5-26.8,5-26.8,0,0,.4,6.9,2.3,23.4s4.7,37.4,6,43.5h6.7v-86.9s-13.8,8-24.7,0h0Z"/>
  <path class="st6" d="M200.4,94.4v-25.5s-.4-10.5-12.6-13.8l2.9-9.6s18.4.3,18,1.8,4.6,5.3,9.2,2,13.2,12.1,14.5,20.7l-7.5,2.9v21.6s-12.7,8.6-24.7,0h0Z"/>
  <path class="st5" d="M188.3,53.3s-14.3-6-43.8-5.1c-2,0-3-2.6-1.3-3.8,1.1-.8,3.1-1.3,6.5-1.2,10,.4,41,2.5,41,2.5l-2.5,7.5h0Z"/>
  <g>
    <rect class="st1" x="63.8" y="22.4" width="54.2" height="1.9"/>
    <rect class="st1" x="63.8" y="26.6" width="32.6" height="1.9"/>
    <rect class="st1" x="63.8" y="54.1" width="32.6" height="1.9"/>
    <rect class="st1" x="63.8" y="46.3" width="32.6" height="1.9"/>
    <rect class="st1" x="98.1" y="46.3" width="32.6" height="1.9"/>
    <rect class="st1" x="68.7" y="62.2" width="32.6" height="1.9"/>
    <rect class="st1" x="103.8" y="62.2" width="32.6" height="1.9"/>
    <rect class="st1" x="63.8" y="30.4" width="74" height="2.1"/>
    <rect class="st1" x="63.8" y="42.5" width="71.9" height="1.9"/>
    <rect class="st1" x="68.7" y="58.1" width="86.5" height="2.3"/>
    <rect class="st1" x="63.8" y="35.4" width="53.3" height="1.6"/>
    <rect class="st1" x="63.8" y="50.2" width="53.3" height="1.6"/>
    <rect class="st1" x="73.1" y="67.8" width="53.3" height="1.6"/>
    <rect class="st1" x="73.1" y="71.4" width="53.3" height="1.6"/>
    <rect class="st1" x="68.7" y="76" width="53.3" height="1.6"/>
    <rect class="st1" x="75.2" y="79.7" width="68.1" height="2.1"/>
    <rect class="st1" x="75.2" y="83.9" width="29.8" height="2.1"/>
    <rect class="st1" x="75.2" y="87.9" width="35.2" height="2.1"/>
    <rect class="st1" x="75.2" y="92" width="10.8" height="1.9"/>
    <rect class="st1" x="36.5" y="22.2" width="10.8" height="1.9"/>
    <rect class="st1" x="36.5" y="25.3" width="10.8" height="1.9"/>
    <rect class="st1" x="36.5" y="30.2" width="17.5" height="1.7"/>
    <rect class="st1" x="36.5" y="36.3" width="17.5" height="1.7"/>
    <rect class="st1" x="36.5" y="39.9" width="17.5" height="1.7"/>
    <rect class="st1" x="36.5" y="47.6" width="17.5" height="1.7"/>
    <rect class="st1" x="36.5" y="51.1" width="17.5" height="1.7"/>
    <rect class="st1" x="36.5" y="57.9" width="11.8" height="1.9"/>
    <rect class="st1" x="36.5" y="62.4" width="11.8" height="1.9"/>
    <rect class="st1" x="36.5" y="65.7" width="8" height="1.9"/>
    <rect class="st1" x="36.5" y="75.5" width="8" height="1.9"/>
    <rect class="st1" x="36.5" y="81" width="8" height="1.9"/>
    <rect class="st1" x="75.2" y="95.4" width="16.9" height="1.7"/>
  </g>
</svg>