<?xml version="1.0" encoding="UTF-8"?>
<svg id="Logo_Ak" xmlns="http://www.w3.org/2000/svg" version="1.1" viewBox="0 0 426 412">
  <!-- Generator: Adobe Illustrator 29.0.1, SVG Export Plug-In . SVG Version: 2.1.0 Build 192)  -->
  <defs>
    <style>
		.st0 {
		fill: #FF9900;
		}

		.st1 {
		fill: #1D3D57;
		fill-rule: evenodd;
		}

		.st2 {
		fill: #ffffff;
		}
	</style>
  </defs>
  <path id="logo" class="st1" d="M4.2,89.2c112.9,68.4,222.1,134.5,335.1,202.8l55.6-34.7c18.8-14.2,25.9-30.6,25.9-49.8s-7.1-35.6-25.9-49.8c-13.4-9.8-28.2-17.5-42.3-26.6-63-38.1-125.9-76.3-188.9-114.4-44.6-25.8-93.4,0-94.5,40.5v4.9l35.8,21.6v-4.4c.6-15.6,3.5-24.7,14.9-29.5,18.6-7.9,29.8.9,48.7,11.8,60.7,36.7,121.4,73.3,182.1,110.1,15.4,9.1,30.6,15.3,30.6,35.9s-15.3,26.9-30.6,35.9l-11.2,6.8L4.4,47.3v41.9h-.2ZM69.1,355.7v-202.6l321.3,194.5-34.6,21L104.8,216.7v109.5c0,21.4,1.4,33.3,14.9,39,18.6,7.9,29.8-.9,48.7-11.8,17.8-10.8,42.3-25.6,60.9-36.8l34.6,21c-30.9,18.7-68.4,41.4-100.3,60.7-45.2,26.1-94.5-1.2-94.5-42.6h0Z"/>
  <g>
    <path class="st0" d="M140.8,231.8c0-22.1,18.4-32.7,61-37.4-.2-12.5-4.3-24.5-20.5-24.5s-21.9,5.1-29.7,10.2l-6.5-11.5c9.2-6.1,23.1-12.9,39.1-12.9,24.1,0,34.6,16.2,34.6,40.7v61.2h-13.9l-1.6-11.9h-.6c-9.4,8-20.2,14.3-32.7,14.3s-29-10.2-29-28.2h0ZM201.7,233.4v-27c-33.5,3.9-44.4,11.5-44.4,24.3s7.6,15.3,17.2,15.3,17.6-4.3,27.2-12.7Z"/>
    <polygon class="st2" points="221.6 200.8 258 154.8 278.8 154.8 247.6 195.8 284.2 257.4 263.2 257.4 235.9 209.4 222.1 227.8 221.6 200.8"/>
  </g>
</svg>