<?xml version="1.0" encoding="UTF-8"?>
<svg id="Ebene_1" xmlns="http://www.w3.org/2000/svg" version="1.1" viewBox="0 0 145 147">
  <!-- Generator: Adobe Illustrator 29.0.1, SVG Export Plug-In . SVG Version: 2.1.0 Build 192)  -->
  <defs>
    <style>
      .st0 {
        fill: #2198c9;
      }

      .st1 {
        fill: #a8d1dd;
      }

      .st2 {
        fill: #2097c8;
      }

      .st3 {
        fill: #093863;
      }

      .st4 {
        fill: #141616;
      }
    </style>
  </defs>
  <g>
    <path class="st1" d="M8.2,16.5s-2.6,2.5-3.6,4.4c-1,2,1.3,6,1.3,6l44.7,101.9c.4,1,.8,1.9,1.2,2.9,1,2.8,5.5,11.1,21.6,8.8,12.8-1.8,40.4-4.7,50.8-5.8,3.6-.4,7.3-2.7,9-6.1s.9-1.9.9-1.9c0,0-3.1,3.2-8.5,5.1l-52.4,4.9c-1.5.1-3,.3-4.5.5-2.6.4-9.3.6-11.8-7.5L7.9,21.9s-1.3-3.6.3-5.4h0Z"/>
    <path class="st3" d="M7.7,21.1l48,106.6c2.5,5.6,8.3,8.6,15.3,7.9l57.9-5.7c4.5-.4,7.6-5.2,6.5-9.1L87.1,14.7c-2-4.5-6.7-7-12.2-6.6l-60.5,3.8c-4.6.3-8.3,5.4-6.7,9.1h0q0,.1,0,.1Z"/>
    <path class="st2" d="M135.6,123.9c-1.3,1.3-3.1,3.4-5.5,4.3s-3.4,1-5.1,1.2l-50,4.7c-1.5.1-3,.3-4.5.5-2.6.4-9.3.6-11.8-7.5L9.7,19.2s-1.3-3.6.3-5.4c0,0-2.6,2.5-3.6,4.4-1,2,1.3,6,1.3,6l44.7,101.8c.4,1,.8,1.9,1.2,2.9,1,2.8,5.5,11.1,21.6,8.8,12.8-1.8,40.4-4.7,50.8-5.8,3.3-.3,5.7-1.7,8.4-5.3s.5-.7.6-1,.3-.8.4-1.2l.2-.8v.2Z"/>
    <path class="st4" d="M32.1,12l.9,1c.6.6,1.2,1.2,1.9,1.7s.2.1.3.2c.5.4,1.1.6,1.7.6l26.2-1.7c1.1,0,2.2-.6,1.5-2.7l-1.2-1.9-30.8,1.9c-.5,0-.8.6-.4,1h-.1Z"/>
  </g>
  <g>
    <polygon class="st0" points="130.7 31.5 77.2 36.8 75.5 33.6 129 28.5 130.7 31.5"/>
    <polygon class="st0" points="133.9 37.8 80.4 42.9 78.7 39.8 132.2 34.5 133.9 37.8"/>
    <polygon class="st0" points="136.9 43.6 83.4 48.8 81.8 45.6 135.3 40.5 136.9 43.6"/>
    <polygon class="st0" points="116.2 53 87.1 55.9 85.4 52.5 114.4 49.6 116.2 53"/>
    <polygon class="st0" points="130.1 58.9 90.7 62.6 88.5 58.5 128 54.8 130.1 58.9"/>
  </g>
</svg>