<svg xmlns="http://www.w3.org/2000/svg" xmlns:xlink="http://www.w3.org/1999/xlink" width="288" zoomAndPan="magnify" viewBox="0 0 216 215.999996" height="288" preserveAspectRatio="xMidYMid meet" version="1.0">
	<defs>
		<g/>
		<clipPath id="0474f0aae5">
			<path d="M 54.542969 35.9375 L 161 35.9375 L 161 179.9375 L 54.542969 179.9375 Z M 54.542969 35.9375 " clip-rule="nonzero"/>
		</clipPath>
	</defs>
	<g clip-path="url(#0474f0aae5)">
		<path fill="#ffffff" d="M 158.414062 35.9375 L 70.253906 35.9375 C 69.246094 35.9375 68.25 36.039062 67.265625 36.234375 C 66.277344 36.433594 65.320312 36.726562 64.390625 37.109375 C 63.460938 37.496094 62.578125 37.96875 61.742188 38.527344 C 60.90625 39.089844 60.132812 39.722656 59.421875 40.433594 C 58.707031 41.144531 58.074219 41.921875 57.515625 42.757812 C 56.953125 43.59375 56.480469 44.476562 56.097656 45.40625 C 55.710938 46.335938 55.417969 47.292969 55.222656 48.277344 C 55.023438 49.265625 54.925781 50.261719 54.921875 51.269531 L 54.921875 160.597656 C 54.921875 161.433594 55.003906 162.257812 55.167969 163.078125 C 55.328125 163.894531 55.570312 164.691406 55.890625 165.460938 C 56.207031 166.230469 56.597656 166.964844 57.0625 167.660156 C 57.523438 168.351562 58.050781 168.996094 58.640625 169.585938 C 59.230469 170.175781 59.871094 170.703125 60.5625 171.167969 C 61.257812 171.632812 61.988281 172.023438 62.757812 172.34375 C 63.53125 172.664062 64.324219 172.90625 65.140625 173.070312 C 65.960938 173.234375 66.785156 173.320312 67.621094 173.320312 L 75.769531 173.320312 L 75.769531 177.570312 C 75.78125 177.773438 75.816406 177.96875 75.878906 178.164062 C 75.9375 178.359375 76.019531 178.542969 76.125 178.714844 C 76.230469 178.886719 76.355469 179.046875 76.496094 179.191406 C 76.640625 179.332031 76.800781 179.457031 76.972656 179.558594 C 77.148438 179.664062 77.332031 179.746094 77.527344 179.804688 C 77.71875 179.863281 77.917969 179.898438 78.121094 179.910156 C 78.324219 179.921875 78.523438 179.90625 78.722656 179.867188 C 78.921875 179.828125 79.113281 179.765625 79.296875 179.683594 L 84.269531 176.921875 L 89.238281 179.683594 C 89.617188 179.917969 90.03125 180.042969 90.480469 180.054688 C 90.808594 180.054688 91.125 179.992188 91.429688 179.867188 C 91.734375 179.738281 92.003906 179.558594 92.238281 179.328125 C 92.46875 179.09375 92.648438 178.824219 92.777344 178.519531 C 92.902344 178.214844 92.964844 177.898438 92.964844 177.570312 L 92.964844 173.296875 L 158.414062 173.296875 C 158.742188 173.296875 159.058594 173.234375 159.363281 173.105469 C 159.667969 172.980469 159.9375 172.800781 160.171875 172.566406 C 160.402344 172.335938 160.582031 172.066406 160.710938 171.761719 C 160.835938 171.457031 160.898438 171.140625 160.898438 170.8125 L 160.898438 38.421875 C 160.898438 38.09375 160.835938 37.777344 160.710938 37.472656 C 160.582031 37.167969 160.402344 36.898438 160.171875 36.664062 C 159.9375 36.433594 159.667969 36.253906 159.363281 36.125 C 159.058594 36 158.742188 35.9375 158.414062 35.9375 Z M 59.71875 51.269531 C 59.71875 50.679688 59.769531 50.09375 59.871094 49.511719 C 59.96875 48.929688 60.117188 48.363281 60.3125 47.804688 C 60.507812 47.25 60.746094 46.714844 61.03125 46.195312 C 61.316406 45.679688 61.644531 45.191406 62.011719 44.730469 C 62.378906 44.269531 62.78125 43.84375 63.222656 43.449219 C 63.660156 43.054688 64.128906 42.699219 64.628906 42.386719 C 65.125 42.070312 65.648438 41.800781 66.191406 41.574219 C 66.734375 41.34375 67.292969 41.164062 67.867188 41.03125 L 67.867188 147.875 L 67.621094 147.875 C 66.179688 147.886719 64.78125 148.132812 63.429688 148.621094 C 62.074219 149.105469 60.835938 149.800781 59.71875 150.710938 Z M 88.167969 173.59375 L 85.511719 172.152344 C 85.15625 171.953125 84.773438 171.855469 84.367188 171.855469 C 83.960938 171.855469 83.578125 171.953125 83.222656 172.152344 L 80.539062 173.59375 L 80.539062 162.984375 L 88.144531 162.984375 Z M 156.027344 168.625 L 92.964844 168.625 L 92.964844 160.574219 C 92.964844 160.246094 92.902344 159.925781 92.777344 159.621094 C 92.648438 159.320312 92.46875 159.050781 92.238281 158.816406 C 92.003906 158.582031 91.734375 158.402344 91.429688 158.277344 C 91.125 158.152344 90.808594 158.089844 90.480469 158.089844 L 78.054688 158.089844 C 77.726562 158.089844 77.410156 158.152344 77.105469 158.277344 C 76.800781 158.402344 76.53125 158.582031 76.300781 158.816406 C 76.066406 159.050781 75.886719 159.320312 75.761719 159.621094 C 75.632812 159.925781 75.570312 160.246094 75.570312 160.574219 L 75.570312 168.5 L 67.621094 168.5 C 67.082031 168.53125 66.546875 168.503906 66.011719 168.425781 C 65.480469 168.347656 64.960938 168.214844 64.453125 168.03125 C 63.945312 167.84375 63.464844 167.609375 63.007812 167.328125 C 62.546875 167.042969 62.121094 166.714844 61.730469 166.347656 C 61.339844 165.976562 60.988281 165.570312 60.679688 165.128906 C 60.371094 164.683594 60.109375 164.21875 59.894531 163.722656 C 59.683594 163.226562 59.523438 162.714844 59.414062 162.1875 C 59.304688 161.660156 59.25 161.125 59.25 160.585938 C 59.25 160.046875 59.304688 159.511719 59.414062 158.984375 C 59.523438 158.457031 59.683594 157.945312 59.894531 157.449219 C 60.109375 156.957031 60.371094 156.488281 60.679688 156.046875 C 60.988281 155.601562 61.339844 155.195312 61.730469 154.828125 C 62.121094 154.457031 62.546875 154.128906 63.007812 153.84375 C 63.464844 153.5625 63.945312 153.328125 64.453125 153.140625 C 64.960938 152.957031 65.480469 152.824219 66.011719 152.746094 C 66.546875 152.667969 67.082031 152.640625 67.621094 152.671875 L 156.027344 152.671875 Z M 156.027344 148 L 72.664062 148 L 72.664062 40.734375 L 156.027344 40.734375 Z M 156.027344 148 " fill-opacity="1" fill-rule="nonzero"/>
	</g>
	<path fill="#ffffff" d="M 83.621094 88.863281 L 139.15625 88.863281 C 139.484375 88.863281 139.804688 88.800781 140.109375 88.675781 C 140.410156 88.546875 140.679688 88.367188 140.914062 88.136719 C 141.148438 87.902344 141.328125 87.632812 141.453125 87.328125 C 141.578125 87.023438 141.640625 86.707031 141.640625 86.378906 L 141.640625 64.761719 C 141.640625 64.429688 141.578125 64.113281 141.453125 63.808594 C 141.328125 63.503906 141.148438 63.238281 140.914062 63.003906 C 140.679688 62.769531 140.410156 62.589844 140.109375 62.464844 C 139.804688 62.339844 139.484375 62.277344 139.15625 62.277344 L 83.621094 62.277344 C 83.292969 62.277344 82.976562 62.339844 82.671875 62.464844 C 82.367188 62.589844 82.097656 62.769531 81.863281 63.003906 C 81.632812 63.238281 81.453125 63.503906 81.328125 63.808594 C 81.199219 64.113281 81.136719 64.429688 81.136719 64.761719 L 81.136719 86.453125 C 81.148438 86.777344 81.21875 87.085938 81.347656 87.378906 C 81.476562 87.675781 81.660156 87.9375 81.890625 88.160156 C 82.121094 88.386719 82.386719 88.558594 82.6875 88.679688 C 82.988281 88.800781 83.296875 88.863281 83.621094 88.863281 Z M 86.105469 67.144531 L 136.769531 67.144531 L 136.769531 84.042969 L 86.007812 84.042969 Z M 86.105469 67.144531 " fill-opacity="1" fill-rule="nonzero"/>
	<g fill="#ffffff" fill-opacity="1">
		<g transform="translate(90.565954, 110.644198)">
			<g>
				<path d="M 1.4375 0 L 1.4375 -10.5 L 3.046875 -10.5 L 5.0625 -4.890625 C 5.1875 -4.535156 5.304688 -4.171875 5.421875 -3.796875 C 5.546875 -3.429688 5.675781 -3.066406 5.8125 -2.703125 L 5.875 -2.703125 C 6 -3.066406 6.117188 -3.429688 6.234375 -3.796875 C 6.347656 -4.171875 6.46875 -4.535156 6.59375 -4.890625 L 8.578125 -10.5 L 10.1875 -10.5 L 10.1875 0 L 8.9375 0 L 8.9375 -5.78125 C 8.9375 -6.25 8.957031 -6.765625 9 -7.328125 C 9.050781 -7.890625 9.09375 -8.40625 9.125 -8.875 L 9.0625 -8.875 L 8.21875 -6.5 L 6.234375 -1.0625 L 5.359375 -1.0625 L 3.375 -6.5 L 2.546875 -8.875 L 2.484375 -8.875 C 2.515625 -8.40625 2.546875 -7.890625 2.578125 -7.328125 C 2.617188 -6.765625 2.640625 -6.25 2.640625 -5.78125 L 2.640625 0 Z M 1.4375 0 "/>
			</g>
		</g>
	</g>
	<g fill="#ffffff" fill-opacity="1">
		<g transform="translate(102.195165, 110.644198)">
			<g>
				<path d="M 3.25 -5.875 L 2.75 -4.265625 L 5.90625 -4.265625 L 5.40625 -5.875 C 5.21875 -6.457031 5.035156 -7.039062 4.859375 -7.625 C 4.691406 -8.207031 4.523438 -8.800781 4.359375 -9.40625 L 4.28125 -9.40625 C 4.125 -8.800781 3.957031 -8.207031 3.78125 -7.625 C 3.613281 -7.039062 3.4375 -6.457031 3.25 -5.875 Z M 0.046875 0 L 3.59375 -10.5 L 5.109375 -10.5 L 8.65625 0 L 7.234375 0 L 6.234375 -3.203125 L 2.421875 -3.203125 L 1.40625 0 Z M 0.046875 0 "/>
			</g>
		</g>
	</g>
	<g fill="#ffffff" fill-opacity="1">
		<g transform="translate(110.89708, 110.644198)">
			<g>
				<path d="M 5.171875 0.1875 C 4.640625 0.1875 4.140625 0.113281 3.671875 -0.03125 C 3.203125 -0.1875 2.800781 -0.441406 2.46875 -0.796875 C 2.132812 -1.160156 1.867188 -1.628906 1.671875 -2.203125 C 1.484375 -2.785156 1.390625 -3.5 1.390625 -4.34375 L 1.390625 -10.5 L 2.71875 -10.5 L 2.71875 -4.296875 C 2.71875 -3.671875 2.78125 -3.144531 2.90625 -2.71875 C 3.039062 -2.289062 3.21875 -1.945312 3.4375 -1.6875 C 3.65625 -1.4375 3.910156 -1.253906 4.203125 -1.140625 C 4.503906 -1.023438 4.828125 -0.96875 5.171875 -0.96875 C 5.523438 -0.96875 5.847656 -1.023438 6.140625 -1.140625 C 6.441406 -1.253906 6.703125 -1.4375 6.921875 -1.6875 C 7.148438 -1.945312 7.328125 -2.289062 7.453125 -2.71875 C 7.578125 -3.144531 7.640625 -3.671875 7.640625 -4.296875 L 7.640625 -10.5 L 8.921875 -10.5 L 8.921875 -4.34375 C 8.921875 -3.5 8.828125 -2.785156 8.640625 -2.203125 C 8.453125 -1.628906 8.1875 -1.160156 7.84375 -0.796875 C 7.507812 -0.441406 7.113281 -0.1875 6.65625 -0.03125 C 6.195312 0.113281 5.703125 0.1875 5.171875 0.1875 Z M 5.171875 0.1875 "/>
			</g>
		</g>
	</g>
	<g fill="#ffffff" fill-opacity="1">
		<g transform="translate(121.214603, 110.644198)">
			<g>
				<path d="M 1.4375 0 L 1.4375 -10.5 L 2.765625 -10.5 L 2.765625 0 Z M 1.4375 0 "/>
			</g>
		</g>
	</g>
	<g fill="#ffffff" fill-opacity="1">
		<g transform="translate(88.35111, 132.394197)">
			<g>
				<path d="M 1.4375 0 L 1.4375 -10.5 L 4.5625 -10.5 C 5.09375 -10.5 5.578125 -10.445312 6.015625 -10.34375 C 6.460938 -10.25 6.84375 -10.097656 7.15625 -9.890625 C 7.46875 -9.691406 7.710938 -9.429688 7.890625 -9.109375 C 8.066406 -8.785156 8.15625 -8.394531 8.15625 -7.9375 C 8.15625 -7.414062 8.023438 -6.941406 7.765625 -6.515625 C 7.503906 -6.097656 7.125 -5.804688 6.625 -5.640625 L 6.625 -5.578125 C 7.257812 -5.460938 7.773438 -5.195312 8.171875 -4.78125 C 8.566406 -4.363281 8.765625 -3.796875 8.765625 -3.078125 C 8.765625 -2.554688 8.664062 -2.101562 8.46875 -1.71875 C 8.28125 -1.34375 8.007812 -1.023438 7.65625 -0.765625 C 7.3125 -0.515625 6.890625 -0.320312 6.390625 -0.1875 C 5.898438 -0.0625 5.363281 0 4.78125 0 Z M 2.765625 -6.03125 L 4.3125 -6.03125 C 5.207031 -6.03125 5.851562 -6.179688 6.25 -6.484375 C 6.644531 -6.796875 6.84375 -7.222656 6.84375 -7.765625 C 6.84375 -8.367188 6.632812 -8.796875 6.21875 -9.046875 C 5.8125 -9.304688 5.203125 -9.4375 4.390625 -9.4375 L 2.765625 -9.4375 Z M 2.765625 -1.0625 L 4.59375 -1.0625 C 5.5 -1.0625 6.203125 -1.226562 6.703125 -1.5625 C 7.203125 -1.894531 7.453125 -2.414062 7.453125 -3.125 C 7.453125 -3.769531 7.207031 -4.242188 6.71875 -4.546875 C 6.226562 -4.859375 5.519531 -5.015625 4.59375 -5.015625 L 2.765625 -5.015625 Z M 2.765625 -1.0625 "/>
			</g>
		</g>
	</g>
	<g fill="#ffffff" fill-opacity="1">
		<g transform="translate(97.756849, 132.394197)">
			<g>
				<path d="M 5.171875 0.1875 C 4.640625 0.1875 4.140625 0.113281 3.671875 -0.03125 C 3.203125 -0.1875 2.800781 -0.441406 2.46875 -0.796875 C 2.132812 -1.160156 1.867188 -1.628906 1.671875 -2.203125 C 1.484375 -2.785156 1.390625 -3.5 1.390625 -4.34375 L 1.390625 -10.5 L 2.71875 -10.5 L 2.71875 -4.296875 C 2.71875 -3.671875 2.78125 -3.144531 2.90625 -2.71875 C 3.039062 -2.289062 3.21875 -1.945312 3.4375 -1.6875 C 3.65625 -1.4375 3.910156 -1.253906 4.203125 -1.140625 C 4.503906 -1.023438 4.828125 -0.96875 5.171875 -0.96875 C 5.523438 -0.96875 5.847656 -1.023438 6.140625 -1.140625 C 6.441406 -1.253906 6.703125 -1.4375 6.921875 -1.6875 C 7.148438 -1.945312 7.328125 -2.289062 7.453125 -2.71875 C 7.578125 -3.144531 7.640625 -3.671875 7.640625 -4.296875 L 7.640625 -10.5 L 8.921875 -10.5 L 8.921875 -4.34375 C 8.921875 -3.5 8.828125 -2.785156 8.640625 -2.203125 C 8.453125 -1.628906 8.1875 -1.160156 7.84375 -0.796875 C 7.507812 -0.441406 7.113281 -0.1875 6.65625 -0.03125 C 6.195312 0.113281 5.703125 0.1875 5.171875 0.1875 Z M 5.171875 0.1875 "/>
			</g>
		</g>
	</g>
	<g fill="#ffffff" fill-opacity="1">
		<g transform="translate(108.074372, 132.394197)">
			<g>
				<path d="M 5.40625 0.1875 C 4.75 0.1875 4.140625 0.0664062 3.578125 -0.171875 C 3.023438 -0.421875 2.539062 -0.773438 2.125 -1.234375 C 1.71875 -1.703125 1.398438 -2.273438 1.171875 -2.953125 C 0.941406 -3.628906 0.828125 -4.394531 0.828125 -5.25 C 0.828125 -6.09375 0.941406 -6.847656 1.171875 -7.515625 C 1.410156 -8.191406 1.738281 -8.765625 2.15625 -9.234375 C 2.570312 -9.703125 3.0625 -10.0625 3.625 -10.3125 C 4.195312 -10.5625 4.816406 -10.6875 5.484375 -10.6875 C 6.128906 -10.6875 6.691406 -10.554688 7.171875 -10.296875 C 7.660156 -10.035156 8.0625 -9.734375 8.375 -9.390625 L 7.640625 -8.53125 C 7.367188 -8.820312 7.054688 -9.054688 6.703125 -9.234375 C 6.347656 -9.421875 5.945312 -9.515625 5.5 -9.515625 C 5 -9.515625 4.546875 -9.414062 4.140625 -9.21875 C 3.734375 -9.019531 3.382812 -8.738281 3.09375 -8.375 C 2.8125 -8.007812 2.59375 -7.5625 2.4375 -7.03125 C 2.28125 -6.507812 2.203125 -5.925781 2.203125 -5.28125 C 2.203125 -4.613281 2.28125 -4.015625 2.4375 -3.484375 C 2.59375 -2.960938 2.804688 -2.515625 3.078125 -2.140625 C 3.359375 -1.765625 3.695312 -1.472656 4.09375 -1.265625 C 4.5 -1.066406 4.953125 -0.96875 5.453125 -0.96875 C 5.960938 -0.96875 6.410156 -1.070312 6.796875 -1.28125 C 7.179688 -1.488281 7.546875 -1.78125 7.890625 -2.15625 L 8.625 -1.328125 C 8.207031 -0.847656 7.738281 -0.472656 7.21875 -0.203125 C 6.695312 0.0546875 6.09375 0.1875 5.40625 0.1875 Z M 5.40625 0.1875 "/>
			</g>
		</g>
	</g>
	<g fill="#ffffff" fill-opacity="1">
		<g transform="translate(117.208176, 132.394197)">
			<g>
				<path d="M 1.4375 0 L 1.4375 -10.5 L 2.765625 -10.5 L 2.765625 -6.09375 L 7.640625 -6.09375 L 7.640625 -10.5 L 8.984375 -10.5 L 8.984375 0 L 7.640625 0 L 7.640625 -4.9375 L 2.765625 -4.9375 L 2.765625 0 Z M 1.4375 0 "/>
			</g>
		</g>
	</g>
</svg>