<?xml version="1.0" encoding="UTF-8"?>
<svg id="Logo_Ak" xmlns="http://www.w3.org/2000/svg" viewBox="0 0 812.99 766.8">
  <defs>
    <style>
      .cls-1 {
        fill: #ffffff;
      }

      .cls-2 {
        fill: #FF9900;
      }

      .cls-3 {
        fill: #1D3D57;
        fill-rule: evenodd;
      }
    </style>
  </defs>
  <path id="logo" class="cls-3" d="M198.2,265.16c112.9,68.4,222.1,134.5,335.1,202.8l55.6-34.7c18.8-14.2,25.9-30.6,25.9-49.8s-7.1-35.6-25.9-49.8c-13.4-9.8-28.2-17.5-42.3-26.6-63-38.1-125.9-76.3-188.9-114.4-44.6-25.8-93.4,0-94.5,40.5v4.9l35.8,21.6v-4.4c.6-15.6,3.5-24.7,14.9-29.5,18.6-7.9,29.8.9,48.7,11.8,60.7,36.7,121.4,73.3,182.1,110.1,15.4,9.1,30.6,15.3,30.6,35.9s-15.3,26.9-30.6,35.9l-11.2,6.8L198.4,223.26v41.9h-.2ZM263.1,531.66v-202.6l321.3,194.5-34.6,21-251-151.9v109.5c0,21.4,1.4,33.3,14.9,39,18.6,7.9,29.8-.9,48.7-11.8,17.8-10.8,42.3-25.6,60.9-36.8l34.6,21c-30.9,18.7-68.4,41.4-100.3,60.7-45.2,26.1-94.5-1.2-94.5-42.6h0Z"/>
  <g>
    <path class="cls-2" d="M334.76,407.78c0-22.09,18.41-32.73,60.96-37.44-.2-12.48-4.3-24.55-20.46-24.55-11.46,0-21.89,5.11-29.66,10.23l-6.55-11.46c9.21-6.14,23.12-12.89,39.07-12.89,24.14,0,34.57,16.16,34.57,40.71v61.17h-13.91l-1.64-11.87h-.61c-9.41,7.98-20.25,14.32-32.73,14.32-16.57,0-29.05-10.23-29.05-28.23ZM395.72,409.41v-27c-33.55,3.89-44.39,11.46-44.39,24.34,0,11.05,7.57,15.34,17.18,15.34s17.59-4.3,27.21-12.68Z"/>
    <polygon class="cls-1" points="415.62 376.78 452 330.79 472.78 330.79 441.6 371.84 478.24 433.41 457.19 433.41 429.91 385.35 416.14 403.8 415.62 376.78"/>
  </g>
</svg>