<?xml version="1.0" encoding="UTF-8"?>
<svg id="Ebene_1" xmlns="http://www.w3.org/2000/svg" viewBox="0 0 812.99 766.8">
  <defs>
    <style>
      .cls-1 {
        fill: #4a5789;
      }

      .cls-2 {
        font-family: SourceSansPro-Regular, 'Source Sans Pro';
        font-size: 14.6px;
      }

      .cls-2, .cls-3 {
        isolation: isolate;
      }

      .cls-2, .cls-4 {
        fill: #fff;
      }

      .cls-5 {
        letter-spacing: 0em;
      }

      .cls-6 {
        fill: #d09743;
      }

      .cls-7 {
        letter-spacing: 0em;
      }

      .cls-8 {
        letter-spacing: 0em;
      }

      .cls-9 {
        fill: #b14949;
      }
    </style>
  </defs>
  <g>
    <rect class="cls-9" x="253.5" y="168.95" width="305.9" height="428.9"/>
    <rect class="cls-1" x="292.7" y="168.95" width="242.1" height="428.9"/>
    <polygon class="cls-4" points="292.7 324.85 534.8 307.15 534.8 421.55 292.7 434.75 292.7 324.85"/>
    <g>
      <path class="cls-6" d="M316.3,341.85c-.3-3.7,1.9-6.1,4.8-6.3s2.6.5,3.4,1.2l-1,1.3c-.6-.5-1.3-.8-2.2-.8-1.8.1-3,1.7-2.8,4.3.2,2.5,1.5,4,3.4,3.9,1,0,1.7-.5,2.3-1.3l1.2,1.2c-.9,1.2-2,1.8-3.5,1.9-2.8.2-5.3-1.7-5.5-5.5l-.1.1Z"/>
      <path class="cls-6" d="M326.5,338.25h1.7c0-.1.3,1.4.3,1.4h0c.5-1.2,1.4-1.8,2.3-1.9s.7,0,1,.1l-.3,1.8h-.8c-.7,0-1.5.6-1.9,1.9l.4,5.2h-2.1c0,.1-.6-8.4-.6-8.4v-.1Z"/>
      <path class="cls-6" d="M332.6,342.15c-.2-2.8,1.6-4.6,3.8-4.8,2.1-.1,4.2,1.4,4.4,4.2.2,2.8-1.6,4.6-3.7,4.7s-4.2-1.3-4.4-4.2l-.1.1ZM338.6,341.75c-.1-1.7-.9-2.8-2.2-2.7s-1.9,1.2-1.8,2.9.9,2.7,2.2,2.7,1.9-1.2,1.8-2.9Z"/>
      <path class="cls-6" d="M342,344.75l.8-1.2c.8.6,1.6.8,2.5.7s1.3-.5,1.3-1.1-.9-.9-1.9-1.2c-1.3-.4-2.5-1-2.5-2.3-.1-1.5,1-2.6,2.9-2.8s2.2.3,2.9.8l-.8,1.2c-.6-.4-1.3-.6-2-.5s-1.2.5-1.2,1,.7.8,1.8,1.1c1.3.4,2.6,1,2.7,2.4.1,1.5-1,2.7-3.2,2.9s-2.4-.3-3.3-1h0Z"/>
      <path class="cls-6" d="M349.5,344.15l.8-1.2c.8.6,1.6.8,2.5.7s1.3-.5,1.3-1.1-.9-.9-1.9-1.2c-1.3-.4-2.5-1-2.5-2.3s1-2.6,2.9-2.8c1.2,0,2.2.3,2.9.8l-.8,1.2c-.6-.4-1.3-.6-2-.5s-1.2.5-1.2,1,.7.8,1.8,1.1c1.3.4,2.6,1,2.7,2.4s-1,2.7-3.2,2.9c-1.2,0-2.4-.3-3.3-1h0Z"/>
      <path class="cls-6" d="M360.4,339.35l4.1-.3v1.5c.1,0-4,.3-4,.3v-1.5h-.1Z"/>
      <path class="cls-6" d="M369.8,332.45l3.6-.3c2.5-.2,4.5.6,4.6,3.2s-1.6,3.8-4.1,4h-1.6c0,.1.3,4.3.3,4.3h-2.1c0,.1-.8-11.2-.8-11.2h.1ZM373.7,337.75c1.7-.1,2.4-.8,2.3-2.2,0-1.4-1-1.8-2.6-1.7h-1.4l.3,4h1.4v-.1Z"/>
      <path class="cls-6" d="M380.3,340.85l-.7-10h2.1c0-.1.7,10,.7,10,0,.5.3.7.5.6s.2,0,.3,0l.3,1.5c-.2.1-.6.2-1.1.3-1.4.1-2-.8-2.1-2.3v-.1Z"/>
      <path class="cls-6" d="M384.6,340.45c-.1-1.9,1.3-2.9,4.8-3.5,0-.9-.5-1.6-1.6-1.5-.8,0-1.6.5-2.3,1l-.8-1.3c.9-.7,2.1-1.3,3.4-1.4,2.1-.1,3.3,1.1,3.4,3.5l.4,5h-1.7c0,.1-.2-.8-.2-.8h0c-.7.7-1.5,1.3-2.5,1.3-1.5.1-2.6-.8-2.7-2.3h-.2ZM389.6,340.15v-1.8c-2.4.4-3.1,1-3,1.9s.6,1,1.2.9,1.2-.4,1.8-1Z"/>
      <path class="cls-6" d="M393.9,339.25l-.3-4h-1.2l-.1-1.4,1.3-.2v-2.7l1.8-.1.2,2.6,2.2-.2v1.6c.1,0-2.1.2-2.1.2l.3,4c0,1,.5,1.4,1.3,1.4s.6,0,.9-.2l.5,1.4c-.4.2-1,.4-1.7.5-2,.1-2.8-1.1-2.9-2.9h-.2Z"/>
      <path class="cls-6" d="M399.9,338.75l-.3-4h-1.2l-.1-1.4,1.3-.2v-2.7l1.8-.1.2,2.6,2.2-.2v1.6c.1,0-2.1.2-2.1.2l.3,4c0,1,.5,1.4,1.3,1.4s.6,0,.9-.2l.5,1.4c-.4.2-1,.4-1.7.5-2,.1-2.8-1.1-2.9-2.9h-.2Z"/>
      <path class="cls-6" d="M405.7,334.35h-1.1l-.1-1.4,1.1-.2v-.8c-.2-1.8.5-3.1,2.6-3.3s1.2,0,1.6.2l-.3,1.5h-.9c-.7,0-1,.5-1,1.5v.9l1.7-.1v1.6c.1,0-1.5.1-1.5.1l.5,6.9h-2c0,.1-.5-6.7-.5-6.7l-.1-.2Z"/>
      <path class="cls-6" d="M410.3,336.65c-.2-2.8,1.6-4.6,3.8-4.8s4.2,1.4,4.4,4.2-1.6,4.6-3.7,4.7-4.2-1.3-4.4-4.2l-.1.1ZM416.4,336.25c-.1-1.7-.9-2.8-2.2-2.7-1.2,0-1.9,1.2-1.8,2.9s.9,2.7,2.2,2.7,1.9-1.2,1.8-2.9Z"/>
      <path class="cls-6" d="M420.1,331.75h1.7c0-.1.3,1.4.3,1.4h0c.5-1.2,1.4-1.8,2.3-1.9s.7,0,1,.1l-.3,1.8h-.8c-.7,0-1.5.6-1.9,1.9l.4,5.2h-2.1c0,.1-.6-8.4-.6-8.4v-.1Z"/>
      <path class="cls-6" d="M426.6,331.25h1.7c0-.1.2,1,.2,1h0c.7-.8,1.4-1.5,2.5-1.6s2,.4,2.5,1.4c.8-.9,1.5-1.6,2.6-1.7,1.8-.1,2.7,1.1,2.9,3.2l.4,5.3h-2.1c0,.1-.4-4.9-.4-4.9,0-1.4-.5-1.9-1.4-1.8s-1.1.4-1.7,1.2l.4,5.9h-2c0,.1-.4-4.9-.4-4.9,0-1.4-.5-1.9-1.4-1.8s-1.1.4-1.7,1.2l.4,5.9h-2.1c0,.1-.6-8.4-.6-8.4h.2Z"/>
      <path class="cls-6" d="M444.4,333.45l4.1-.3v1.5c.1,0-4,.3-4,.3v-1.5h-.1Z"/>
      <path class="cls-6" d="M456,326.35l2.4-.2,4.5,11.1-2.2.2-1.1-3-3.8.3-.7,3.1h-2.1c0,.1,2.9-11.4,2.9-11.4l.1-.1ZM456.2,333.05l2.8-.2-.5-1.3c-.4-1.2-.9-2.4-1.3-3.7h0c-.2,1.3-.4,2.6-.7,3.8l-.3,1.4h0Z"/>
      <path class="cls-6" d="M463.5,328.65h1.7c0-.1.2.8.2.8h0c.7-.7,1.6-1.2,2.5-1.3,2.1-.1,3.5,1.5,3.6,4.1.2,2.9-1.4,4.7-3.3,4.8s-1.5-.2-2.2-.8l.2,1.4.2,2.6h-2.1c0,.1-.8-11.7-.8-11.7v.1ZM469.5,332.45c-.1-1.7-.7-2.6-2-2.5s-1.2.4-1.8,1.1l.3,3.9c.6.5,1.2.6,1.7.6,1.1,0,1.9-1.1,1.8-3v-.1Z"/>
      <path class="cls-6" d="M473.2,327.95h1.7c0-.1.2.8.2.8h0c.7-.7,1.6-1.2,2.5-1.3,2.1-.1,3.5,1.5,3.6,4.1.2,2.9-1.4,4.7-3.3,4.8s-1.5-.2-2.2-.8l.2,1.4.2,2.6h-2.1c0,.1-.8-11.7-.8-11.7v.1ZM479.2,331.75c-.1-1.7-.7-2.6-2-2.5-.6,0-1.2.4-1.8,1.1l.3,3.9c.6.5,1.2.6,1.7.6,1.1,0,1.9-1.1,1.8-3v-.1Z"/>
      <path class="cls-6" d="M482.7,334.85l.8-1.2c.8.6,1.6.8,2.5.7s1.3-.5,1.3-1.1-.9-.9-1.9-1.2c-1.3-.4-2.5-1-2.5-2.3s1-2.6,2.9-2.8,2.2.3,2.9.8l-.8,1.2c-.6-.4-1.3-.6-2-.5s-1.2.5-1.2,1,.7.8,1.8,1.1c1.3.4,2.6,1,2.7,2.4s-1,2.7-3.2,2.9c-1.2,0-2.4-.3-3.3-1Z"/>
      <path class="cls-6" d="M493.9,326.55h1.7c0-.1.2,1,.2,1h0c.7-.8,1.4-1.5,2.5-1.6s2,.4,2.5,1.4c.8-.9,1.5-1.6,2.6-1.7,1.8-.1,2.7,1.1,2.9,3.2l.4,5.3h-2.1c0,.1-.4-4.9-.4-4.9,0-1.4-.5-1.9-1.4-1.8s-1.1.4-1.7,1.2l.4,5.9h-2c0,.1-.4-4.9-.4-4.9,0-1.4-.5-1.9-1.4-1.8s-1.1.4-1.7,1.2l.4,5.9h-2.1c0,.1-.6-8.4-.6-8.4h.2Z"/>
      <path class="cls-6" d="M508.2,322.95c0-.7.4-1.2,1.1-1.2s1.3.4,1.3,1.1-.4,1.2-1.1,1.2-1.3-.4-1.3-1.1ZM508.5,325.55h2.1c0-.1.6,8.4.6,8.4h-2.1c0,.1-.6-8.4-.6-8.4Z"/>
      <path class="cls-6" d="M513.8,330.85l-.3-4h-1.2l-.1-1.4,1.3-.2v-2.7l1.8-.1.2,2.6,2.2-.2v1.6c.1,0-2.1.2-2.1.2l.3,4c0,1,.5,1.4,1.3,1.4s.6,0,.9-.2l.5,1.4c-.4.2-1,.4-1.7.5-2,.1-2.8-1.1-2.9-2.9h-.2Z"/>
    </g>
    <g>
      <path class="cls-9" d="M306.3,384.35c-.1-2,1.3-3.6,3.2-3.7,1.9-.1,3.4,1.3,3.6,3.3s-1.3,3.6-3.2,3.7-3.4-1.3-3.5-3.3h-.1Z"/>
      <path class="cls-9" d="M318,357.75l5.6-.3,9.5,15.4c1.2,1.9,2.3,4.1,3.3,6.4h.2c-.5-3.1-1-6.6-1.2-9.8l-.7-12.6,4.9-.3,1.6,28.9-5.6.3-9.5-15.4c-1.2-1.9-2.3-4.1-3.3-6.4h-.2c.5,3,1,6.6,1.2,9.8l.7,12.6-4.9.3-1.6-28.9Z"/>
      <path class="cls-9" d="M347,356.15l17.4-1,.2,4.4-12.2.7.4,7.2,10.3-.6.2,4.4-10.3.6.5,8.4,12.6-.7.2,4.4-17.9,1-1.6-28.9.2.1Z"/>
      <path class="cls-9" d="M376.8,358.95l-8.3.5-.2-4.4,21.9-1.2.2,4.4-8.3.5,1.3,24.5-5.3.3-1.3-24.5v-.1Z"/>
      <path class="cls-9" d="M403.7,352.95l6.2-.3,5.7,13.9c.7,1.8,1.3,3.5,2,5.6h.2c.4-2.2.8-3.9,1.3-5.8l4.2-14.4,6.2-.3,1.6,28.9-4.9.3-.7-13.2c-.2-2.7,0-6.7.3-9.4h-.2l-1.9,7.1-4,13.2-3.4.2-5.3-12.6-2.7-6.9h-.2c.5,2.6,1.2,6.6,1.3,9.3l.7,13.2-4.8.3-1.6-28.9v-.2Z"/>
      <path class="cls-9" d="M442.4,350.85l6.2-.3,11,28.4-5.6.3-2.6-7.6-9.6.5-1.8,7.9-5.3.3,7.8-29.4-.1-.1ZM442.7,367.95l7.2-.4-1.2-3.4c-1.1-3-2.1-6.3-3.1-9.4h-.2c-.6,3.2-1.2,6.5-2,9.6l-.8,3.5.1.1Z"/>
      <path class="cls-9" d="M461.6,366.05l-.9-16.2,5.3-.3.9,16.6c.3,6.2,2.8,8.2,6.2,8,3.5-.2,5.8-2.4,5.4-8.6l-.9-16.6,5.1-.3.9,16.2c.5,9.5-3.5,13.5-10.2,13.9-6.8.4-11.3-3.1-11.8-12.6v-.1Z"/>
      <path class="cls-9" d="M489.9,348.25l5.3-.3,1.6,28.9-5.3.3-1.6-28.9Z"/>
    </g>
    <g>
      <path class="cls-6" d="M322,400.25c-.1-2.9,1.8-4.7,3.8-4.8s3.7,1.5,3.9,4,0,.8,0,1.1l-5.5.3c.3,1.5,1.3,2.3,2.7,2.2s1.4-.3,2-.7l.8,1.3c-.8.6-1.8,1-3,1.1-2.4.1-4.4-1.5-4.6-4.4l-.1-.1ZM327.8,399.05c0-1.3-.7-2-1.9-1.9-1,0-1.8.8-1.9,2.1l3.8-.2Z"/>
      <path class="cls-6" d="M331.4,395.45h1.7l.2,1.1h0c.7-.8,1.6-1.5,2.8-1.5,1.9,0,2.8,1.1,2.9,3.4l.3,5.5h-2.1c0,.1-.3-5.1-.3-5.1,0-1.4-.5-1.9-1.4-1.9-.8,0-1.2.4-1.9,1.2l.3,6.1h-2.1c0,.1-.5-8.7-.5-8.7l.1-.1Z"/>
      <path class="cls-6" d="M342,400.65l-.2-4.1h-1.2v-1.5l1.4-.2v-2.7h1.9v2.7c.1,0,2.4-.1,2.4-.1v1.7l-2.1.1.2,4.1c0,1,.5,1.5,1.3,1.5s.6,0,.9-.2l.5,1.5c-.5.2-1.1.4-1.8.5-2.1.1-2.9-1.1-3-3l-.3-.3Z"/>
      <path class="cls-6" d="M347,394.65h2.1c0-.1,1.3,4.4,1.3,4.4.2.8.4,1.6.6,2.6h0c.1-1,.2-1.8.3-2.6l.8-4.6h2.1c0-.1,1.3,4.4,1.3,4.4.2.8.4,1.6.7,2.6h0c.1-1,.2-1.8.3-2.6l.8-4.6h2c0-.1-1.8,8.8-1.8,8.8h-2.6c0,.1-1.1-3.9-1.1-3.9-.2-.8-.4-1.5-.6-2.6h0c0,1.2-.2,1.9-.3,2.7l-.7,4.1h-2.5c0,.1-2.8-8.5-2.8-8.5l.1-.2Z"/>
      <path class="cls-6" d="M360.9,391.15c0-.7.5-1.2,1.2-1.3s1.3.4,1.3,1.1-.5,1.2-1.2,1.3c-.7,0-1.3-.4-1.3-1.1ZM361.2,393.85h2.1c0-.1.5,8.7.5,8.7h-2.1c0,.1-.5-8.7-.5-8.7Z"/>
      <path class="cls-6" d="M365.6,398.05c-.2-2.9,1.8-4.7,4.2-4.9s1.9.3,2.6.8l-.9,1.4c-.5-.4-.9-.5-1.5-.5-1.4,0-2.3,1.3-2.2,3,0,1.7,1.1,2.8,2.4,2.8.7,0,1.3-.4,1.8-.8l.9,1.3c-.8.8-1.8,1.2-2.8,1.2-2.4.1-4.3-1.5-4.5-4.4v.1Z"/>
      <path class="cls-6" d="M373.9,389.35h2.1c0-.1.4,7.7.4,7.7h0l3-4.1h2.3c0-.1-2.8,3.6-2.8,3.6l3.6,5h-2.3c0,.1-2.4-3.5-2.4-3.5l-1.3,1.6v2.2c.1,0-2,.1-2,.1l-.7-12.6h.1Z"/>
      <path class="cls-6" d="M383.8,399.15l-.5-10.3h2.1c0-.1.5,10.3.5,10.3,0,.5.3.7.5.7h.3l.3,1.5c-.2.1-.6.2-1.1.3-1.5,0-2.1-.9-2.2-2.4l.1-.1Z"/>
      <path class="cls-6" d="M388,396.85c-.1-2.9,1.8-4.7,3.8-4.8,2.4-.1,3.7,1.5,3.9,4v1.1l-5.5.3c.3,1.5,1.3,2.3,2.7,2.2.7,0,1.4-.3,2-.7l.8,1.3c-.8.6-1.8,1-3,1.1-2.4.1-4.4-1.5-4.6-4.4l-.1-.1ZM393.8,395.65c0-1.3-.7-2-1.9-1.9-1,0-1.8.8-1.9,2.1l3.8-.2h0Z"/>
      <path class="cls-6" d="M397.4,391.95h1.7l.2,1.1h0c.7-.8,1.6-1.5,2.8-1.5,1.9,0,2.8,1.1,2.9,3.4l.3,5.5h-2.1c0,.1-.3-5.1-.3-5.1,0-1.4-.5-1.9-1.4-1.9s-1.2.4-1.9,1.2l.3,6.1h-2.1c0,.1-.5-8.7-.5-8.7l.1-.1Z"/>
    </g>
    <g>
      <path class="cls-4" d="M319.6,285.85c-3-3-4.8-4.8-6.5-4.8s-2,.6-2,1.9.5,1.6,1.2,2.1l-.7.7c-1-.8-1.6-1.8-1.6-3.1,0-1.9,1.2-3.1,3-3.1s3.8,1.8,6.3,4.2v-4.7h1.1v6.6h-.8v.2Z"/>
      <path class="cls-4" d="M319.6,277.55c-.6,0-1-.4-1-1s.4-1,1-1,1,.4,1,1-.4,1-1,1Z"/>
      <path class="cls-4" d="M310,271.05v-1.5l10.4-3.5v1.4l-3.2,1v3.8l3.2,1v1.4l-10.4-3.5v-.1ZM316.2,271.85v-3.1l-1.6.5c-1.2.4-2.3.7-3.5,1h0c1.2.4,2.4.7,3.5,1.1l1.6.5Z"/>
      <path class="cls-4" d="M317.6,264.85h-4.9v-1.3h4.7c1.4,0,2.1-.4,2.1-1.5s-.4-1.3-1.3-2.1h-5.5v-1.3h7.7v1.1h-1.2v.2c.8.7,1.4,1.5,1.4,2.5,0,1.6-1.1,2.4-3,2.4h0Z"/>
      <path class="cls-4" d="M313.8,255.85v1.1h-1v-1.1h-1.3c-1.6,0-2.6-.7-2.6-2.3s.1-1,.3-1.3l1,.3c0,.3-.2.6-.2.9,0,.7.5,1.1,1.5,1.1h1.2v-1.6h1.1v1.6h6.7v1.3h-6.7Z"/>
      <path class="cls-4" d="M318.9,251.45h-9.8v-1.3h9.9c.4,0,.6-.2.6-.4v-.3l1-.2c0,.2.1.4.1.8,0,1-.6,1.4-1.8,1.4h0Z"/>
      <path class="cls-4" d="M318.4,247.85c-1.7,0-2.5-1.4-2.9-4.7-1,0-1.9.3-1.9,1.6s.4,1.7.8,2.3l-.9.5c-.5-.7-1-1.8-1-3,0-1.9,1.3-2.7,3.2-2.7h4.8v1.1h-.9v.2c.6.7,1.1,1.6,1.1,2.5s-.8,2.3-2.2,2.3l-.1-.1ZM318.6,243.15h-2.1c.3,2.6.9,3.5,1.9,3.5s1.2-.6,1.2-1.3-.3-1.4-1-2.1v-.1Z"/>
      <path class="cls-4" d="M321.9,239.95c-.7,0-1.3-.4-1.7-1.1h0c-.2.4-.7.7-1.3.7s-1.2-.4-1.4-.8h0c-.4.5-1.2,1-2.1,1-1.7,0-2.8-1.3-2.8-2.9s0-.8.2-1.1v-2.7h1v1.6c.3-.4.9-.6,1.6-.6,1.7,0,2.7,1.3,2.7,2.8s0,.8-.3,1.1c.2.3.5.5.9.5s.8-.3.8-1.4v-1.5c0-1.8.6-2.7,1.8-2.7s2.7,1.5,2.7,3.9-.7,3.2-2.1,3.2h0ZM321.5,234.15c-.7,0-1,.5-1,1.6v1.3c0,.3,0,.7-.1,1,.4.6.9.8,1.3.8.8,0,1.3-.8,1.3-2.2s-.8-2.4-1.6-2.4l.1-.1ZM315.3,235.15c-1.1,0-1.8.7-1.8,1.6s.7,1.6,1.8,1.6,1.8-.7,1.8-1.6-.7-1.6-1.8-1.6Z"/>
      <path class="cls-4" d="M316.6,232.15c-2.5,0-4.1-1.7-4.1-3.5s1.4-3.1,3.6-3.1.5,0,.8,0v5.2c1.6-.1,2.6-1.1,2.6-2.5s-.2-1.4-.6-1.9l.8-.5c.5.7.8,1.5.8,2.6,0,2.1-1.5,3.7-4.1,3.7h.2ZM315.9,226.75c-1.5,0-2.3.7-2.3,1.9s.9,2,2.3,2.2v-4.1Z"/>
    </g>
    <g class="cls-3">
      <text class="cls-2" transform="translate(431.1 268.75)"><tspan x="0" y="0">And</tspan><tspan class="cls-8" x="24.03" y="0">r</tspan><tspan class="cls-5" x="28.97" y="0">é K</tspan><tspan class="cls-7" x="47.58" y="0">R</tspan><tspan x="55.84" y="0">ÄMER</tspan></text>
    </g>
  </g>
  <rect class="cls-9" x="443.1" y="522.15" width="93.5" height="22.9"/>
  <rect class="cls-1" x="536.6" y="522.15" width="22.9" height="22.9"/>
</svg>